name D:\school\WTK\thesis\model\3dpredictsim\Results\batch_windlass\Pog_s1_tmt_aCst_d00_k500_WL20_ig24_pas.mot
datacolumns 128
datarows 4
range 0.54322529 0.57581881
endheader
time	pelvis_tilt	pelvis_list	pelvis_rotation	pelvis_tx	pelvis_ty	pelvis_tz	hip_flexion_l	hip_adduction_l	hip_rotation_l	hip_flexion_r	hip_adduction_r	hip_rotation_r	knee_angle_l	knee_angle_r	ankle_angle_l	ankle_angle_r	subtalar_angle_l	subtalar_angle_r	tmt_angle_l	tmt_angle_r	mtp_angle_l	mtp_angle_r	lumbar_extension	lumbar_bending	lumbar_rotation	arm_flex_l	arm_add_l	arm_rot_l	arm_flex_r	arm_add_r	arm_rot_r	elbow_flex_l	elbow_flex_r	pro_sup_l	pro_sup_r	glut_med1_l/activation	glut_med2_l/activation	glut_med3_l/activation	glut_min1_l/activation	glut_min2_l/activation	glut_min3_l/activation	semimem_l/activation	semiten_l/activation	bifemlh_l/activation	bifemsh_l/activation	sar_l/activation	add_long_l/activation	add_brev_l/activation	add_mag1_l/activation	add_mag2_l/activation	add_mag3_l/activation	tfl_l/activation	pect_l/activation	grac_l/activation	glut_max1_l/activation	glut_max2_l/activation	glut_max3_l/activation	iliacus_l/activation	psoas_l/activation	quad_fem_l/activation	gem_l/activation	peri_l/activation	rect_fem_l/activation	vas_med_l/activation	vas_int_l/activation	vas_lat_l/activation	med_gas_l/activation	lat_gas_l/activation	soleus_l/activation	tib_post_l/activation	flex_dig_l/activation	flex_hal_l/activation	tib_ant_l/activation	per_brev_l/activation	per_long_l/activation	per_tert_l/activation	ext_dig_l/activation	ext_hal_l/activation	ercspn_l/activation	intobl_l/activation	extobl_l/activation	glut_med1_r/activation	glut_med2_r/activation	glut_med3_r/activation	glut_min1_r/activation	glut_min2_r/activation	glut_min3_r/activation	semimem_r/activation	semiten_r/activation	bifemlh_r/activation	bifemsh_r/activation	sar_r/activation	add_long_r/activation	add_brev_r/activation	add_mag1_r/activation	add_mag2_r/activation	add_mag3_r/activation	tfl_r/activation	pect_r/activation	grac_r/activation	glut_max1_r/activation	glut_max2_r/activation	glut_max3_r/activation	iliacus_r/activation	psoas_r/activation	quad_fem_r/activation	gem_r/activation	peri_r/activation	rect_fem_r/activation	vas_med_r/activation	vas_int_r/activation	vas_lat_r/activation	med_gas_r/activation	lat_gas_r/activation	soleus_r/activation	tib_post_r/activation	flex_dig_r/activation	flex_hal_r/activation	tib_ant_r/activation	per_brev_r/activation	per_long_r/activation	per_tert_r/activation	ext_dig_r/activation	ext_hal_r/activation	ercspn_r/activation	intobl_r/activation	extobl_r/activation	
          0.54322529	         -2.92012796	          1.72728896	         -6.14610564	          0.67903162	          0.85714671	          0.00249951	         31.66159738	          2.27943370	         -4.06936320	        -17.69951174	         -1.65917934	          8.10287242	        -18.41708096	        -10.91568510	          1.20353661	         -1.72297854	          0.54463849	         13.20867143	         -0.30900136	         -4.21636580	          1.54661545	         27.81258243	         -1.08707005	         -0.15194460	          1.88264707	        -10.55264375	        -13.62704582	          6.04004690	          4.83048287	        -13.46927558	         15.28988684	         18.42185421	         37.72031095	         86.51662706	         86.51662706	          0.05905374	          0.05905322	          0.05000159	          0.05905333	          0.05905295	          0.05006212	          0.05905379	          0.05905369	          0.22893153	          0.05000011	          0.05000018	          0.11491326	          0.21721075	          0.11439517	          0.16089181	          0.12468606	          0.05000031	          0.05898578	          0.08256773	          0.05000096	          0.09448412	          0.14268980	          0.05905452	          0.05971872	          0.29844718	          0.06963080	          0.07544593	          0.05000006	          0.14647428	          0.14905543	          0.12543800	          0.05905375	          0.05905376	          0.05905375	          0.05000016	          0.05000022	          0.05001576	          0.52721412	          0.29036615	          0.16194651	          0.31549718	          0.58317142	          0.11473327	          0.05000002	          0.09832150	          0.09948871	          0.22709636	          0.08538255	          0.05000001	          0.26513505	          0.17823727	          0.08669316	          0.05000060	          0.05000009	          0.05000006	          0.06652757	          0.08081028	          0.18151462	          0.08819038	          0.05000050	          0.05000066	          0.05000023	          0.28643480	          0.09725671	          0.05000029	          0.05000071	          0.05000045	          0.05000032	          0.31526293	          0.54353583	          0.05000004	          0.05000011	          0.05000003	          0.25158344	          0.11659182	          0.07815438	          0.07828975	          0.26217310	          0.34061116	          0.22760066	          0.19363342	          0.19073317	          0.25190003	          0.05000005	          0.11568895	          0.16722777	          0.05000024	          0.05000051	          0.05000015	          0.05000000	          0.05000002	          0.05464457	
          0.55408980	         -2.90671673	          1.83636113	         -6.37457418	          0.69592547	          0.85615400	          0.00228776	         31.01918700	          2.72955089	         -3.81649944	        -17.36502242	         -1.95734504	          7.88224423	        -18.46917152	        -13.08761000	          0.94945933	         -2.78272606	         -0.04495844	         14.19424716	         -0.35050387	         -4.94285369	          1.77268337	         28.66872339	         -0.85756054	         -0.41987382	          1.95525458	        -11.59411749	        -13.61629285	          5.90552562	          4.52848760	        -13.49588599	         15.59167296	         18.27095438	         38.68677957	         86.51662706	         86.51662706	          0.05000000	          0.05000002	          0.09810735	          0.05000001	          0.05000002	          0.05000004	          0.05000005	          0.05000005	          0.19383320	          0.05000023	          0.05905375	          0.09729559	          0.18390952	          0.41255294	          0.28887750	          0.11430631	          0.05000006	          0.05000126	          0.06991024	          0.05903748	          0.09419309	          0.16153938	          0.05000069	          0.06419691	          0.59313766	          0.11521513	          0.08633921	          0.06974689	          0.22980619	          0.22874067	          0.19605796	          0.05000000	          0.05000001	          0.05000000	          0.05000001	          0.05905373	          0.05000034	          0.63404705	          0.26380473	          0.14084359	          0.60302571	          0.63132740	          0.31206954	          0.05000000	          0.08324746	          0.08423572	          0.19227938	          0.07229224	          0.05536217	          0.22448623	          0.15091107	          0.07340194	          0.05508958	          0.05000005	          0.05000009	          0.05632799	          0.06842101	          0.23346145	          0.27570529	          0.26852361	          0.09497871	          0.13569340	          0.24252070	          0.08234668	          0.05000029	          0.05000073	          0.05000050	          0.05000075	          0.26692879	          0.47594645	          0.05000023	          0.05905677	          0.05905394	          0.21301225	          0.09871771	          0.13571689	          0.11985906	          0.22197835	          0.28839078	          0.19270634	          0.16394677	          0.16149120	          0.21328032	          0.12355477	          0.09795229	          0.14158947	          0.05000004	          0.14129937	          0.05000027	          0.05018478	          0.06974694	          0.05821444	
          0.56495431	         -2.88902668	          1.95811444	         -6.57355729	          0.71298902	          0.85495213	          0.00210364	         30.22631642	          3.12715265	         -3.48334086	        -16.92710403	         -2.24321652	          7.65134698	        -18.98329191	        -15.46118566	          0.98820967	         -3.84255927	         -0.70736025	         15.09736269	         -0.60209113	         -5.48565925	          1.87057814	         28.82109970	         -0.61735044	         -0.70909817	          2.01321182	        -12.60679641	        -13.62236312	          5.87603321	          4.16193963	        -13.52597813	         15.82322271	         18.07711128	         39.64990327	         86.51662706	         86.51662706	          0.33284391	          0.34505762	          0.44875779	          0.23283927	          0.05000060	          0.41684546	          0.09223815	          0.10692147	          0.17045189	          0.05000002	          0.05000011	          0.08237891	          0.24899617	          0.34930292	          0.24458877	          0.16773039	          0.05000009	          0.06974661	          0.13341572	          0.05000004	          0.07975212	          0.17875656	          0.05491274	          0.05435466	          0.50220149	          0.09755110	          0.25912027	          0.05905373	          0.23283225	          0.24738506	          0.20661117	          0.05342518	          0.05198959	          0.05905374	          0.05000000	          0.05000006	          0.05000011	          0.57458324	          0.22335984	          0.11925033	          0.52871226	          0.59406661	          0.27651997	          0.05000003	          0.07394552	          0.07132123	          0.20178604	          0.06120887	          0.05000005	          0.19006946	          0.12777436	          0.06214844	          0.07921178	          0.05905382	          0.05905437	          0.05000005	          0.05793121	          0.19766910	          0.31418753	          0.22735533	          0.08041909	          0.11488991	          0.27806037	          0.06972234	          0.05905399	          0.05003338	          0.05905402	          0.05905424	          0.22600494	          0.43996220	          0.05905366	          0.05000275	          0.05000017	          0.18035454	          0.08358294	          0.11490963	          0.10148302	          0.18794601	          0.24417650	          0.16316180	          0.13881149	          0.13673242	          0.18058155	          0.21404928	          0.13423505	          0.15339725	          0.29656893	          0.24127255	          0.14221867	          0.08375172	          0.05905378	          0.05000011	
          0.57581881	         -2.86985945	          2.08278866	         -6.74053630	          0.72996815	          0.85362934	          0.00191177	         29.30209211	          3.49958495	         -3.13007132	        -16.34892043	         -2.50723292	          7.42193057	        -19.44612612	        -18.07811823	          1.19651550	         -4.82760490	         -1.39041144	         15.88766098	         -0.94632975	         -5.61480231	          1.90628331	         27.76432942	         -0.38888310	         -1.00279901	          2.05975958	        -13.53477394	        -13.63804778	          5.96028286	          3.77697688	        -13.56368907	         16.01137781	         17.81342521	         40.57687122	         86.51662706	         86.51662706	          0.42840482	          0.50625852	          0.57642703	          0.35655969	          0.41660343	          0.41994219	          0.07809680	          0.11269917	          0.14431927	          0.07307282	          0.05000028	          0.06974910	          0.21082164	          0.29575001	          0.20709010	          0.16911015	          0.05000010	          0.05905358	          0.11296143	          0.29448925	          0.21887603	          0.17461251	          0.05000001	          0.05000001	          0.42520709	          0.08259523	          0.21939375	          0.05000000	          0.30336738	          0.33050739	          0.27238658	          0.05000000	          0.05000000	          0.05000000	          0.11368649	          0.05000186	          0.05000012	          0.67024281	          0.18911571	          0.10096761	          0.44765349	          0.56424279	          0.37452992	          0.07336326	          0.06733736	          0.06038670	          0.17084950	          0.05182475	          0.05000005	          0.16095701	          0.10818486	          0.05262031	          0.11043132	          0.05000018	          0.05000060	          0.05000008	          0.05000646	          0.17684478	          0.26601829	          0.19249868	          0.06808987	          0.09727578	          0.32226252	          0.05903308	          0.05000035	          0.05000076	          0.05000062	          0.05000060	          0.19135532	          0.41021622	          0.05000004	          0.05000024	          0.05000011	          0.15270373	          0.07076855	          0.09729242	          0.08592430	          0.15913129	          0.20674089	          0.13814685	          0.12277765	          0.11576956	          0.15289637	          0.20506185	          0.11490984	          0.13872991	          0.25110089	          0.23837451	          0.12041462	          0.12130382	          0.05000002	          0.05000000	
